<svg width="600" height="147" viewBox="0 0 600 147" fill="none" xmlns="http://www.w3.org/2000/svg">
<path d="M4.87303 102.103H84.1147C86.8035 102.103 88.9877 104.286 88.9877 106.976V113.41C88.9877 116.099 86.8045 118.283 84.1147 118.283H4.87202C2.18321 118.283 0 116.1 0 113.411V106.977C0 104.288 2.18321 102.103 4.87303 102.103Z" fill="white"/>
<path d="M82.8507 58.2799L62.1896 46.3506C61.5151 45.9613 61.5151 44.9885 62.1896 44.5992L82.8507 32.6709C85.1815 31.325 85.9793 28.3449 84.6344 26.0141L81.4168 20.4423C80.0708 18.1115 77.0908 17.3136 74.761 18.6585L54.0999 30.5868C53.4254 30.9761 52.583 30.4897 52.583 29.7111V5.85454C52.583 3.1637 50.4019 0.981506 47.71 0.981506H41.2757C38.5848 0.981506 36.4036 3.16269 36.4036 5.85353V29.7111C36.4036 30.4897 35.5613 30.9761 34.8868 30.5868L14.2257 18.6585C11.8949 17.3126 8.91483 18.1115 7.56992 20.4423L4.35325 26.0141C3.00733 28.3449 3.80619 31.325 6.13703 32.6699L26.7981 44.5981C27.4726 44.9875 27.4726 45.9602 26.7981 46.3496L6.13703 58.2788C3.80619 59.6248 3.00834 62.6048 4.35325 64.9346L7.56992 70.5064C8.91584 72.8373 11.8959 73.6351 14.2257 72.2902L34.8868 60.3609C35.5613 59.9716 36.4036 60.458 36.4036 61.2366V85.0942C36.4036 87.785 38.5848 89.9662 41.2757 89.9662H47.71C50.4008 89.9662 52.583 87.785 52.583 85.0932V61.2356C52.583 60.457 53.4254 59.9706 54.0999 60.3599L74.761 72.2892C77.0918 73.6351 80.0708 72.8363 81.4168 70.5064L84.6344 64.9336C85.9804 62.6028 85.1815 59.6227 82.8507 58.2778V58.2799Z" fill="white"/>
<path d="M137.532 61.3175C141.783 54.598 150.561 49.9323 159.614 49.9323C178.128 49.9323 192.802 65.2946 192.802 84.9081C192.802 104.522 178.129 119.879 159.614 119.879C150.561 119.879 141.784 115.217 137.532 108.498V145.964C137.532 146.522 137.079 146.975 136.521 146.975H122.357C121.799 146.975 121.346 146.522 121.346 145.964V52.5918C121.346 52.0336 121.799 51.5806 122.357 51.5806H136.521C137.079 51.5806 137.532 52.0336 137.532 52.5918V61.3175ZM156.731 64.1955C145.485 64.1955 136.842 73.1133 136.842 84.9081C136.842 96.7029 145.485 105.616 156.731 105.616C168.116 105.616 176.754 96.7029 176.754 84.9081C176.754 73.1133 168.116 64.1955 156.731 64.1955Z" fill="white"/>
<path d="M254.821 94.9383C257.053 96.3763 262.904 100.143 265.06 101.53C265.516 101.824 265.664 102.43 265.387 102.898C258.867 113.881 247.859 119.879 235.289 119.879C216.495 119.879 200.723 104.656 200.723 84.9081C200.723 65.1591 216.495 49.9323 235.014 49.9323C254.481 49.9323 268.219 64.9943 267.947 87.8841C267.941 88.4373 267.482 88.8852 266.93 88.8852H215.949C217.594 99.4463 225.686 106.031 235.288 106.031C244.223 106.031 249.258 102.125 253.404 95.2771C253.703 94.7836 254.335 94.6259 254.821 94.9383ZM216.634 77.774H251.88C250.786 70.2304 244.885 63.6504 235.014 63.6504C226.371 63.6504 219.237 69.1362 216.634 77.774Z" fill="white"/>
<path d="M319.409 52.5523C319.553 52.0548 319.298 51.5341 318.821 51.3338C317.382 50.7301 315.704 50.3469 313.066 50.3469C304.703 50.3469 297.984 55.4181 294.692 62.0021V52.5918C294.692 52.0336 294.239 51.5806 293.68 51.5806H279.516C278.958 51.5806 278.505 52.0336 278.505 52.5918V117.224C278.505 117.783 278.958 118.236 279.516 118.236H293.68C294.239 118.236 294.692 117.783 294.692 117.224V84.2235C294.692 73.3874 301.411 66.2533 311.148 66.2533C312.292 66.2533 313.379 66.3321 314.426 66.4929C314.936 66.5708 315.426 66.2806 315.569 65.7861C316.338 63.1367 318.651 55.1613 319.409 52.5523Z" fill="white"/>
<path d="M321.891 101.309L334.013 96.9112C334.541 96.7201 335.111 97.0002 335.309 97.526C337.501 103.315 341.895 107.265 348.139 107.265C353.075 107.265 357.601 104.248 357.601 98.7617C357.601 86.2773 324.958 94.6451 324.958 70.7805C324.958 59.2597 334.695 49.9333 348.409 49.9333C359.655 49.9333 368.09 56.0582 371.261 64.8608C371.454 65.3958 371.142 65.9843 370.599 66.1532L358.389 69.9442C357.874 70.104 357.342 69.8168 357.158 69.3102C355.536 64.8457 352.361 62.5532 347.865 62.5532C343.614 62.5532 340.047 65.2956 340.047 69.6873C340.047 81.6176 372.965 73.3894 372.965 97.7991C372.965 110.693 361.17 119.881 347.726 119.881C335.596 119.881 324.76 113.146 321.266 102.567C321.096 102.053 321.383 101.496 321.891 101.312V101.309Z" fill="white"/>
<path d="M415.106 49.9323C434.305 49.9323 450.491 65.1591 450.491 84.9081C450.491 104.657 434.305 119.879 415.106 119.879C395.902 119.879 379.855 104.656 379.855 84.9081C379.855 65.1591 395.902 49.9323 415.106 49.9323ZM415.106 105.616C426.487 105.616 435.129 96.7029 435.129 84.9081C435.129 73.1133 426.486 64.1955 415.106 64.1955C403.86 64.1955 395.217 73.1133 395.217 84.9081C395.217 96.7029 403.86 105.616 415.106 105.616Z" fill="white"/>
<path d="M490.274 64.3765C481.356 64.3765 475.462 71.2355 475.462 81.7926V117.266C475.462 117.824 475.009 118.277 474.451 118.277H460.287C459.729 118.277 459.276 117.824 459.276 117.266V52.6332C459.276 52.0751 459.729 51.622 460.287 51.622H474.451C475.009 51.622 475.462 52.0751 475.462 52.6332V60.5349C479.849 54.3644 486.708 49.9738 496.035 49.9738C511.118 49.9738 519.896 60.4004 519.896 74.1134V117.266C519.896 117.824 519.443 118.277 518.885 118.277H504.726C504.167 118.277 503.714 117.824 503.714 117.266V78.5051C503.714 69.8623 498.779 64.3775 490.275 64.3775L490.274 64.3765Z" fill="white"/>
<path d="M600 52.5918V117.224C600 117.783 599.547 118.236 598.989 118.236H584.825C584.267 118.236 583.814 117.783 583.814 117.224V108.499C579.702 115.218 570.924 119.88 561.871 119.88C543.357 119.88 528.679 104.523 528.679 84.9091C528.679 65.2956 543.357 49.9333 561.871 49.9333C570.924 49.9333 579.701 54.599 583.814 61.3185V52.5928C583.814 52.0346 584.267 51.5816 584.825 51.5816H598.989C599.547 51.5816 600 52.0346 600 52.5928V52.5918ZM564.615 105.616C576 105.616 584.638 96.7029 584.638 84.9081C584.638 73.1133 576 64.1954 564.615 64.1954C553.369 64.1954 544.726 73.1133 544.726 84.9081C544.726 96.7029 553.369 105.616 564.615 105.616Z" fill="white"/>
</svg>
